<svg xmlns:xlink="http://www.w3.org/1999/xlink" role="img" aria-label="Discord Ableton" viewBox="0 0 48 48" xmlns="http://www.w3.org/2000/svg" fill="#5865F2" width="48"  height="48" ><path d="M40.6606 11.0467C37.5069 9.6029 34.1777 8.5786 30.7578 8C30.2898 8.83657 29.8664 9.6973 29.4893 10.5786C25.8465 10.0296 22.142 10.0296 18.4992 10.5786C18.1219 9.69739 17.6985 8.83668 17.2307 8C13.8087 8.58349 10.4772 9.61021 7.32038 11.0543C1.05329 20.3265 -0.645622 29.3685 0.203833 38.2821C3.874 40.9938 7.98197 43.0561 12.3492 44.3793C13.3325 43.0568 14.2027 41.6537 14.9504 40.1849C13.5302 39.6545 12.1595 39.0001 10.8541 38.2293C11.1977 37.9801 11.5337 37.7234 11.8584 37.4742C15.6567 39.2605 19.8025 40.1867 23.9999 40.1867C28.1974 40.1867 32.3431 39.2605 36.1415 37.4742C36.4699 37.7423 36.8059 37.999 37.1457 38.2293C35.8378 39.0014 34.4646 39.657 33.0419 40.1887C33.7887 41.6568 34.6589 43.0587 35.6431 44.3793C40.014 43.0614 44.1252 41.0001 47.796 38.2859C48.7927 27.949 46.0933 18.9901 40.6606 11.0467ZM16.0264 32.8003C13.6592 32.8003 11.7036 30.6521 11.7036 28.0094C11.7036 25.3666 13.5913 23.1996 16.0188 23.1996C18.4464 23.1996 20.3869 25.3666 20.3454 28.0094C20.3038 30.6521 18.4388 32.8003 16.0264 32.8003ZM31.9735 32.8003C29.6025 32.8003 27.6545 30.6521 27.6545 28.0094C27.6545 25.3666 29.5421 23.1996 31.9735 23.1996C34.4048 23.1996 36.3302 25.3666 36.2887 28.0094C36.2472 30.6521 34.3859 32.8003 31.9735 32.8003Z" fill="#5865F2"></path></svg>